<mxfile host="app.diagrams.net" agent="Mozilla/5.0 (Windows NT 10.0; Win64; x64) AppleWebKit/537.36 (KHTML, like Gecko) Chrome/131.0.0.0 Safari/537.36" version="24.9.0">
  <diagram id="C5RBs43oDa-KdzZeNtuy" name="Page-1">
    <mxGraphModel dx="2442" dy="803" grid="1" gridSize="10" guides="1" tooltips="1" connect="1" arrows="1" fold="1" page="1" pageScale="1" pageWidth="827" pageHeight="1169" math="0" shadow="0">
      <root>
        <mxCell id="WIyWlLk6GJQsqaUBKTNV-0" />
        <mxCell id="WIyWlLk6GJQsqaUBKTNV-1" parent="WIyWlLk6GJQsqaUBKTNV-0" />
        <mxCell id="M7CGMbNuYNeq0SnUNNgH-6" value="ทบทวนสัญลักษณ์" style="swimlane;fontFamily=Sarabun;fontSource=https%3A%2F%2Ffonts.googleapis.com%2Fcss%3Ffamily%3DSarabun;" parent="WIyWlLk6GJQsqaUBKTNV-1" vertex="1">
          <mxGeometry x="-720" y="20" width="650" height="290" as="geometry" />
        </mxCell>
        <mxCell id="M7CGMbNuYNeq0SnUNNgH-2" value="&lt;font data-font-src=&quot;https://fonts.googleapis.com/css?family=Sarabun&quot; face=&quot;Sarabun&quot;&gt;เริ่มต้น&lt;/font&gt;" style="ellipse;whiteSpace=wrap;html=1;" parent="M7CGMbNuYNeq0SnUNNgH-6" vertex="1">
          <mxGeometry x="20" y="40" width="130" height="30" as="geometry" />
        </mxCell>
        <mxCell id="M7CGMbNuYNeq0SnUNNgH-5" value="" style="endArrow=classic;html=1;rounded=0;" parent="M7CGMbNuYNeq0SnUNNgH-6" edge="1">
          <mxGeometry width="50" height="50" relative="1" as="geometry">
            <mxPoint x="84.5" y="70" as="sourcePoint" />
            <mxPoint x="84.5" y="120" as="targetPoint" />
          </mxGeometry>
        </mxCell>
        <mxCell id="M7CGMbNuYNeq0SnUNNgH-3" value="&lt;font face=&quot;Sarabun&quot;&gt;สิ้นสุด&lt;/font&gt;" style="ellipse;whiteSpace=wrap;html=1;" parent="M7CGMbNuYNeq0SnUNNgH-6" vertex="1">
          <mxGeometry x="150" y="90" width="130" height="30" as="geometry" />
        </mxCell>
        <mxCell id="M7CGMbNuYNeq0SnUNNgH-4" value="" style="endArrow=classic;html=1;rounded=0;" parent="M7CGMbNuYNeq0SnUNNgH-6" edge="1">
          <mxGeometry width="50" height="50" relative="1" as="geometry">
            <mxPoint x="214.5" y="40" as="sourcePoint" />
            <mxPoint x="214.5" y="90" as="targetPoint" />
          </mxGeometry>
        </mxCell>
        <mxCell id="mvioNwK95yMqdUQ73LqQ-0" value="กระบวนการ" style="rounded=0;whiteSpace=wrap;html=1;fontFamily=Sarabun;fontSource=https%3A%2F%2Ffonts.googleapis.com%2Fcss%3Ffamily%3DSarabun;" parent="M7CGMbNuYNeq0SnUNNgH-6" vertex="1">
          <mxGeometry x="320" y="70" width="120" height="30" as="geometry" />
        </mxCell>
        <mxCell id="mvioNwK95yMqdUQ73LqQ-1" value="" style="endArrow=classic;html=1;rounded=0;" parent="M7CGMbNuYNeq0SnUNNgH-6" edge="1">
          <mxGeometry width="50" height="50" relative="1" as="geometry">
            <mxPoint x="379" y="40" as="sourcePoint" />
            <mxPoint x="379.5" y="70" as="targetPoint" />
          </mxGeometry>
        </mxCell>
        <mxCell id="mvioNwK95yMqdUQ73LqQ-2" value="" style="endArrow=classic;html=1;rounded=0;" parent="M7CGMbNuYNeq0SnUNNgH-6" edge="1">
          <mxGeometry width="50" height="50" relative="1" as="geometry">
            <mxPoint x="379.75" y="100" as="sourcePoint" />
            <mxPoint x="380.25" y="130" as="targetPoint" />
          </mxGeometry>
        </mxCell>
        <mxCell id="mvioNwK95yMqdUQ73LqQ-3" value="ประโยคเงื่อนไข" style="rhombus;whiteSpace=wrap;html=1;fontFamily=Sarabun;fontSource=https%3A%2F%2Ffonts.googleapis.com%2Fcss%3Ffamily%3DSarabun;" parent="M7CGMbNuYNeq0SnUNNgH-6" vertex="1">
          <mxGeometry x="490" y="60" width="100" height="60" as="geometry" />
        </mxCell>
        <mxCell id="mvioNwK95yMqdUQ73LqQ-4" value="" style="endArrow=classic;html=1;rounded=0;" parent="M7CGMbNuYNeq0SnUNNgH-6" edge="1">
          <mxGeometry width="50" height="50" relative="1" as="geometry">
            <mxPoint x="539.71" y="30" as="sourcePoint" />
            <mxPoint x="540.21" y="60" as="targetPoint" />
          </mxGeometry>
        </mxCell>
        <mxCell id="mvioNwK95yMqdUQ73LqQ-5" value="" style="endArrow=classic;html=1;rounded=0;" parent="M7CGMbNuYNeq0SnUNNgH-6" edge="1">
          <mxGeometry width="50" height="50" relative="1" as="geometry">
            <mxPoint x="539.71" y="120" as="sourcePoint" />
            <mxPoint x="540" y="175" as="targetPoint" />
          </mxGeometry>
        </mxCell>
        <mxCell id="mvioNwK95yMqdUQ73LqQ-7" value="จริง" style="edgeLabel;html=1;align=center;verticalAlign=middle;resizable=0;points=[];fontFamily=Sarabun;fontSource=https%3A%2F%2Ffonts.googleapis.com%2Fcss%3Ffamily%3DSarabun;" parent="mvioNwK95yMqdUQ73LqQ-5" vertex="1" connectable="0">
          <mxGeometry x="-0.4142" y="-1" relative="1" as="geometry">
            <mxPoint as="offset" />
          </mxGeometry>
        </mxCell>
        <mxCell id="mvioNwK95yMqdUQ73LqQ-6" value="" style="endArrow=classic;html=1;rounded=0;exitX=1;exitY=0.5;exitDx=0;exitDy=0;" parent="M7CGMbNuYNeq0SnUNNgH-6" source="mvioNwK95yMqdUQ73LqQ-3" edge="1">
          <mxGeometry width="50" height="50" relative="1" as="geometry">
            <mxPoint x="620" y="95" as="sourcePoint" />
            <mxPoint x="610" y="175" as="targetPoint" />
            <Array as="points">
              <mxPoint x="610" y="90" />
            </Array>
          </mxGeometry>
        </mxCell>
        <mxCell id="mvioNwK95yMqdUQ73LqQ-8" value="&lt;font data-font-src=&quot;https://fonts.googleapis.com/css?family=Sarabun&quot; face=&quot;Sarabun&quot;&gt;เท็จ&lt;/font&gt;" style="edgeLabel;html=1;align=center;verticalAlign=middle;resizable=0;points=[];" parent="mvioNwK95yMqdUQ73LqQ-6" vertex="1" connectable="0">
          <mxGeometry x="-0.0019" y="-2" relative="1" as="geometry">
            <mxPoint as="offset" />
          </mxGeometry>
        </mxCell>
        <mxCell id="mvioNwK95yMqdUQ73LqQ-9" value="&lt;font data-font-src=&quot;https://fonts.googleapis.com/css?family=Sarabun&quot; face=&quot;Sarabun&quot;&gt;ฟังก์ชัน/โมดูล&lt;/font&gt;" style="shape=process;whiteSpace=wrap;html=1;backgroundOutline=1;" parent="M7CGMbNuYNeq0SnUNNgH-6" vertex="1">
          <mxGeometry x="25" y="180" width="120" height="30" as="geometry" />
        </mxCell>
        <mxCell id="mvioNwK95yMqdUQ73LqQ-11" value="" style="endArrow=classic;html=1;rounded=0;" parent="M7CGMbNuYNeq0SnUNNgH-6" edge="1">
          <mxGeometry width="50" height="50" relative="1" as="geometry">
            <mxPoint x="84.70999999999998" y="150" as="sourcePoint" />
            <mxPoint x="85.20999999999998" y="180" as="targetPoint" />
          </mxGeometry>
        </mxCell>
        <mxCell id="mvioNwK95yMqdUQ73LqQ-12" value="" style="endArrow=classic;html=1;rounded=0;" parent="M7CGMbNuYNeq0SnUNNgH-6" edge="1">
          <mxGeometry width="50" height="50" relative="1" as="geometry">
            <mxPoint x="84.70999999999998" y="210" as="sourcePoint" />
            <mxPoint x="85.20999999999998" y="240" as="targetPoint" />
          </mxGeometry>
        </mxCell>
        <mxCell id="mvioNwK95yMqdUQ73LqQ-13" value="" style="strokeWidth=2;html=1;shape=mxgraph.flowchart.start_2;whiteSpace=wrap;" parent="M7CGMbNuYNeq0SnUNNgH-6" vertex="1">
          <mxGeometry x="205" y="185" width="20" height="20" as="geometry" />
        </mxCell>
        <mxCell id="mvioNwK95yMqdUQ73LqQ-16" value="" style="endArrow=classic;html=1;rounded=0;" parent="M7CGMbNuYNeq0SnUNNgH-6" edge="1">
          <mxGeometry width="50" height="50" relative="1" as="geometry">
            <mxPoint x="214.70999999999998" y="155" as="sourcePoint" />
            <mxPoint x="215.20999999999998" y="185" as="targetPoint" />
          </mxGeometry>
        </mxCell>
        <mxCell id="mvioNwK95yMqdUQ73LqQ-17" value="" style="endArrow=classic;html=1;rounded=0;entryX=0;entryY=0.5;entryDx=0;entryDy=0;entryPerimeter=0;" parent="M7CGMbNuYNeq0SnUNNgH-6" target="mvioNwK95yMqdUQ73LqQ-13" edge="1">
          <mxGeometry width="50" height="50" relative="1" as="geometry">
            <mxPoint x="189.99999999999997" y="155" as="sourcePoint" />
            <mxPoint x="190.49999999999997" y="185" as="targetPoint" />
            <Array as="points">
              <mxPoint x="190" y="180" />
            </Array>
          </mxGeometry>
        </mxCell>
        <mxCell id="mvioNwK95yMqdUQ73LqQ-18" value="" style="endArrow=classic;html=1;rounded=0;entryX=1;entryY=0.5;entryDx=0;entryDy=0;entryPerimeter=0;" parent="M7CGMbNuYNeq0SnUNNgH-6" target="mvioNwK95yMqdUQ73LqQ-13" edge="1">
          <mxGeometry width="50" height="50" relative="1" as="geometry">
            <mxPoint x="239.99999999999997" y="155" as="sourcePoint" />
            <mxPoint x="240.49999999999997" y="185" as="targetPoint" />
            <Array as="points">
              <mxPoint x="240" y="180" />
            </Array>
          </mxGeometry>
        </mxCell>
        <mxCell id="mvioNwK95yMqdUQ73LqQ-19" value="" style="endArrow=classic;html=1;rounded=0;" parent="M7CGMbNuYNeq0SnUNNgH-6" edge="1">
          <mxGeometry width="50" height="50" relative="1" as="geometry">
            <mxPoint x="214.70999999999998" y="205" as="sourcePoint" />
            <mxPoint x="215.20999999999998" y="235" as="targetPoint" />
          </mxGeometry>
        </mxCell>
        <mxCell id="mvioNwK95yMqdUQ73LqQ-20" value="&lt;font data-font-src=&quot;https://fonts.googleapis.com/css?family=Sarabun&quot; face=&quot;Sarabun&quot;&gt;ตัวเชื่อม&lt;/font&gt;" style="text;html=1;align=center;verticalAlign=middle;resizable=0;points=[];autosize=1;strokeColor=none;fillColor=none;" parent="M7CGMbNuYNeq0SnUNNgH-6" vertex="1">
          <mxGeometry x="220" y="190" width="60" height="30" as="geometry" />
        </mxCell>
        <mxCell id="mvioNwK95yMqdUQ73LqQ-25" value="" style="endArrow=classic;html=1;rounded=0;" parent="M7CGMbNuYNeq0SnUNNgH-6" edge="1">
          <mxGeometry width="50" height="50" relative="1" as="geometry">
            <mxPoint x="353.71" y="165" as="sourcePoint" />
            <mxPoint x="354.21" y="195" as="targetPoint" />
          </mxGeometry>
        </mxCell>
        <mxCell id="mvioNwK95yMqdUQ73LqQ-21" value="" style="verticalLabelPosition=bottom;verticalAlign=top;html=1;shape=offPageConnector;rounded=0;size=0.5;" parent="M7CGMbNuYNeq0SnUNNgH-6" vertex="1">
          <mxGeometry x="339" y="195" width="30" height="30" as="geometry" />
        </mxCell>
        <mxCell id="mvioNwK95yMqdUQ73LqQ-26" value="" style="endArrow=classic;html=1;rounded=0;" parent="M7CGMbNuYNeq0SnUNNgH-6" edge="1">
          <mxGeometry width="50" height="50" relative="1" as="geometry">
            <mxPoint x="405.71" y="195" as="sourcePoint" />
            <mxPoint x="406.21" y="225" as="targetPoint" />
          </mxGeometry>
        </mxCell>
        <mxCell id="mvioNwK95yMqdUQ73LqQ-27" value="" style="verticalLabelPosition=bottom;verticalAlign=top;html=1;shape=offPageConnector;rounded=0;size=0.5;" parent="M7CGMbNuYNeq0SnUNNgH-6" vertex="1">
          <mxGeometry x="391" y="165" width="30" height="30" as="geometry" />
        </mxCell>
        <mxCell id="mvioNwK95yMqdUQ73LqQ-28" value="หน้าต่อไป" style="text;html=1;align=center;verticalAlign=middle;resizable=0;points=[];autosize=1;strokeColor=none;fillColor=none;fontFamily=Sarabun;fontSource=https%3A%2F%2Ffonts.googleapis.com%2Fcss%3Ffamily%3DSarabun;" parent="M7CGMbNuYNeq0SnUNNgH-6" vertex="1">
          <mxGeometry x="345" y="220" width="70" height="30" as="geometry" />
        </mxCell>
        <mxCell id="mvioNwK95yMqdUQ73LqQ-29" value="ก" style="text;html=1;align=center;verticalAlign=middle;resizable=0;points=[];autosize=1;strokeColor=none;fillColor=none;fontFamily=Sarabun;fontSource=https%3A%2F%2Ffonts.googleapis.com%2Fcss%3Ffamily%3DSarabun;" parent="M7CGMbNuYNeq0SnUNNgH-6" vertex="1">
          <mxGeometry x="339" y="190" width="30" height="30" as="geometry" />
        </mxCell>
        <mxCell id="mvioNwK95yMqdUQ73LqQ-30" value="ก" style="text;html=1;align=center;verticalAlign=middle;resizable=0;points=[];autosize=1;strokeColor=none;fillColor=none;fontFamily=Sarabun;fontSource=https%3A%2F%2Ffonts.googleapis.com%2Fcss%3Ffamily%3DSarabun;" parent="M7CGMbNuYNeq0SnUNNgH-6" vertex="1">
          <mxGeometry x="391" y="160" width="30" height="30" as="geometry" />
        </mxCell>
        <mxCell id="mvioNwK95yMqdUQ73LqQ-32" value="แสดงผล/รับค่า" style="shape=parallelogram;perimeter=parallelogramPerimeter;whiteSpace=wrap;html=1;fixedSize=1;fontFamily=Sarabun;fontSource=https%3A%2F%2Ffonts.googleapis.com%2Fcss%3Ffamily%3DSarabun;" parent="M7CGMbNuYNeq0SnUNNgH-6" vertex="1">
          <mxGeometry x="450" y="210" width="120" height="30" as="geometry" />
        </mxCell>
        <mxCell id="mvioNwK95yMqdUQ73LqQ-33" value="" style="endArrow=classic;html=1;rounded=0;" parent="M7CGMbNuYNeq0SnUNNgH-6" edge="1">
          <mxGeometry width="50" height="50" relative="1" as="geometry">
            <mxPoint x="509.71" y="180" as="sourcePoint" />
            <mxPoint x="510.21" y="210" as="targetPoint" />
          </mxGeometry>
        </mxCell>
        <mxCell id="mvioNwK95yMqdUQ73LqQ-34" value="" style="endArrow=classic;html=1;rounded=0;" parent="M7CGMbNuYNeq0SnUNNgH-6" edge="1">
          <mxGeometry width="50" height="50" relative="1" as="geometry">
            <mxPoint x="509.71" y="240" as="sourcePoint" />
            <mxPoint x="510.21" y="270" as="targetPoint" />
          </mxGeometry>
        </mxCell>
        <mxCell id="mvioNwK95yMqdUQ73LqQ-36" value="แก้ไขโจทย์ปัญหา" style="swimlane;fontFamily=Sarabun;fontSource=https%3A%2F%2Ffonts.googleapis.com%2Fcss%3Ffamily%3DSarabun;" parent="WIyWlLk6GJQsqaUBKTNV-1" vertex="1">
          <mxGeometry x="-780" y="650" width="900" height="1770" as="geometry" />
        </mxCell>
        <mxCell id="hVgv6dRFYr8T3Di9n9Na-1" value="" style="edgeStyle=orthogonalEdgeStyle;rounded=0;orthogonalLoop=1;jettySize=auto;html=1;" edge="1" parent="mvioNwK95yMqdUQ73LqQ-36" source="mvioNwK95yMqdUQ73LqQ-35" target="hVgv6dRFYr8T3Di9n9Na-0">
          <mxGeometry relative="1" as="geometry" />
        </mxCell>
        <mxCell id="mvioNwK95yMqdUQ73LqQ-35" value="&lt;font data-font-src=&quot;https://fonts.googleapis.com/css?family=Sarabun&quot; face=&quot;Sarabun&quot;&gt;เริ่มต้น&lt;/font&gt;" style="ellipse;whiteSpace=wrap;html=1;" parent="mvioNwK95yMqdUQ73LqQ-36" vertex="1">
          <mxGeometry x="350" y="50" width="130" height="30" as="geometry" />
        </mxCell>
        <mxCell id="hVgv6dRFYr8T3Di9n9Na-3" value="" style="edgeStyle=orthogonalEdgeStyle;rounded=0;orthogonalLoop=1;jettySize=auto;html=1;" edge="1" parent="mvioNwK95yMqdUQ73LqQ-36" source="hVgv6dRFYr8T3Di9n9Na-0" target="hVgv6dRFYr8T3Di9n9Na-2">
          <mxGeometry relative="1" as="geometry" />
        </mxCell>
        <mxCell id="hVgv6dRFYr8T3Di9n9Na-0" value="เตรียมอุปกรณ์" style="whiteSpace=wrap;html=1;" vertex="1" parent="mvioNwK95yMqdUQ73LqQ-36">
          <mxGeometry x="355" y="120" width="120" height="60" as="geometry" />
        </mxCell>
        <mxCell id="hVgv6dRFYr8T3Di9n9Na-7" value="" style="edgeStyle=orthogonalEdgeStyle;rounded=0;orthogonalLoop=1;jettySize=auto;html=1;" edge="1" parent="mvioNwK95yMqdUQ73LqQ-36" source="hVgv6dRFYr8T3Di9n9Na-2" target="hVgv6dRFYr8T3Di9n9Na-6">
          <mxGeometry relative="1" as="geometry" />
        </mxCell>
        <mxCell id="hVgv6dRFYr8T3Di9n9Na-9" value="N" style="edgeLabel;html=1;align=center;verticalAlign=middle;resizable=0;points=[];" vertex="1" connectable="0" parent="hVgv6dRFYr8T3Di9n9Na-7">
          <mxGeometry x="0.4659" relative="1" as="geometry">
            <mxPoint as="offset" />
          </mxGeometry>
        </mxCell>
        <mxCell id="hVgv6dRFYr8T3Di9n9Na-2" value="ดูว่ามีบะหมี่กึ่งสำเร็จ&lt;div&gt;หรือไม่&lt;/div&gt;" style="rhombus;whiteSpace=wrap;html=1;" vertex="1" parent="mvioNwK95yMqdUQ73LqQ-36">
          <mxGeometry x="340" y="210" width="150" height="80" as="geometry" />
        </mxCell>
        <mxCell id="hVgv6dRFYr8T3Di9n9Na-4" value="" style="endArrow=classic;html=1;rounded=0;exitX=0.5;exitY=1;exitDx=0;exitDy=0;" edge="1" parent="mvioNwK95yMqdUQ73LqQ-36" source="hVgv6dRFYr8T3Di9n9Na-2">
          <mxGeometry width="50" height="50" relative="1" as="geometry">
            <mxPoint x="412.5" y="290" as="sourcePoint" />
            <mxPoint x="415" y="330" as="targetPoint" />
          </mxGeometry>
        </mxCell>
        <mxCell id="hVgv6dRFYr8T3Di9n9Na-8" value="Y" style="edgeLabel;html=1;align=center;verticalAlign=middle;resizable=0;points=[];" vertex="1" connectable="0" parent="hVgv6dRFYr8T3Di9n9Na-4">
          <mxGeometry x="-0.32" relative="1" as="geometry">
            <mxPoint as="offset" />
          </mxGeometry>
        </mxCell>
        <mxCell id="hVgv6dRFYr8T3Di9n9Na-11" value="" style="edgeStyle=orthogonalEdgeStyle;rounded=0;orthogonalLoop=1;jettySize=auto;html=1;" edge="1" parent="mvioNwK95yMqdUQ73LqQ-36" source="hVgv6dRFYr8T3Di9n9Na-5" target="hVgv6dRFYr8T3Di9n9Na-10">
          <mxGeometry relative="1" as="geometry" />
        </mxCell>
        <mxCell id="hVgv6dRFYr8T3Di9n9Na-5" value="เตรียมต้มน้ำ" style="whiteSpace=wrap;html=1;" vertex="1" parent="mvioNwK95yMqdUQ73LqQ-36">
          <mxGeometry x="355" y="330" width="120" height="60" as="geometry" />
        </mxCell>
        <mxCell id="hVgv6dRFYr8T3Di9n9Na-6" value="บอกให้พี่ชายพาเดินไปซื้อร้านขายของชำข้าง ๆ" style="whiteSpace=wrap;html=1;" vertex="1" parent="mvioNwK95yMqdUQ73LqQ-36">
          <mxGeometry x="520" y="330" width="120" height="60" as="geometry" />
        </mxCell>
        <mxCell id="hVgv6dRFYr8T3Di9n9Na-15" value="" style="edgeStyle=orthogonalEdgeStyle;rounded=0;orthogonalLoop=1;jettySize=auto;html=1;" edge="1" parent="mvioNwK95yMqdUQ73LqQ-36" source="hVgv6dRFYr8T3Di9n9Na-10" target="hVgv6dRFYr8T3Di9n9Na-14">
          <mxGeometry relative="1" as="geometry" />
        </mxCell>
        <mxCell id="hVgv6dRFYr8T3Di9n9Na-22" value="Y" style="edgeLabel;html=1;align=center;verticalAlign=middle;resizable=0;points=[];" vertex="1" connectable="0" parent="hVgv6dRFYr8T3Di9n9Na-15">
          <mxGeometry x="-0.02" y="1" relative="1" as="geometry">
            <mxPoint as="offset" />
          </mxGeometry>
        </mxCell>
        <mxCell id="hVgv6dRFYr8T3Di9n9Na-18" value="" style="edgeStyle=orthogonalEdgeStyle;rounded=0;orthogonalLoop=1;jettySize=auto;html=1;" edge="1" parent="mvioNwK95yMqdUQ73LqQ-36" source="hVgv6dRFYr8T3Di9n9Na-10" target="hVgv6dRFYr8T3Di9n9Na-17">
          <mxGeometry relative="1" as="geometry" />
        </mxCell>
        <mxCell id="hVgv6dRFYr8T3Di9n9Na-23" value="N" style="edgeLabel;html=1;align=center;verticalAlign=middle;resizable=0;points=[];" vertex="1" connectable="0" parent="hVgv6dRFYr8T3Di9n9Na-18">
          <mxGeometry x="-0.21" y="1" relative="1" as="geometry">
            <mxPoint as="offset" />
          </mxGeometry>
        </mxCell>
        <mxCell id="hVgv6dRFYr8T3Di9n9Na-10" value="ตรวจสอบ&lt;div&gt;ดูว่ามีแก๊ซรึป่าว&lt;/div&gt;" style="rhombus;whiteSpace=wrap;html=1;" vertex="1" parent="mvioNwK95yMqdUQ73LqQ-36">
          <mxGeometry x="350" y="420" width="130" height="80" as="geometry" />
        </mxCell>
        <mxCell id="hVgv6dRFYr8T3Di9n9Na-25" value="" style="edgeStyle=orthogonalEdgeStyle;rounded=0;orthogonalLoop=1;jettySize=auto;html=1;" edge="1" parent="mvioNwK95yMqdUQ73LqQ-36" source="hVgv6dRFYr8T3Di9n9Na-12" target="hVgv6dRFYr8T3Di9n9Na-24">
          <mxGeometry relative="1" as="geometry" />
        </mxCell>
        <mxCell id="hVgv6dRFYr8T3Di9n9Na-12" value="ให้พี่ชายเปิดแก๊ซให้" style="whiteSpace=wrap;html=1;" vertex="1" parent="mvioNwK95yMqdUQ73LqQ-36">
          <mxGeometry x="355" y="590" width="120" height="60" as="geometry" />
        </mxCell>
        <mxCell id="hVgv6dRFYr8T3Di9n9Na-16" value="" style="edgeStyle=orthogonalEdgeStyle;rounded=0;orthogonalLoop=1;jettySize=auto;html=1;" edge="1" parent="mvioNwK95yMqdUQ73LqQ-36" source="hVgv6dRFYr8T3Di9n9Na-14" target="hVgv6dRFYr8T3Di9n9Na-12">
          <mxGeometry relative="1" as="geometry" />
        </mxCell>
        <mxCell id="hVgv6dRFYr8T3Di9n9Na-14" value="" style="ellipse;whiteSpace=wrap;html=1;aspect=fixed;" vertex="1" parent="mvioNwK95yMqdUQ73LqQ-36">
          <mxGeometry x="405" y="540" width="20" height="20" as="geometry" />
        </mxCell>
        <mxCell id="hVgv6dRFYr8T3Di9n9Na-17" value="ให้พี่ชายเปลี่ยนแก๊ซให้" style="whiteSpace=wrap;html=1;" vertex="1" parent="mvioNwK95yMqdUQ73LqQ-36">
          <mxGeometry x="520" y="430" width="120" height="60" as="geometry" />
        </mxCell>
        <mxCell id="hVgv6dRFYr8T3Di9n9Na-21" value="" style="endArrow=classic;html=1;rounded=0;exitX=1;exitY=0.5;exitDx=0;exitDy=0;" edge="1" parent="mvioNwK95yMqdUQ73LqQ-36" source="hVgv6dRFYr8T3Di9n9Na-17">
          <mxGeometry width="50" height="50" relative="1" as="geometry">
            <mxPoint x="700" y="550" as="sourcePoint" />
            <mxPoint x="425" y="550" as="targetPoint" />
            <Array as="points">
              <mxPoint x="670" y="460" />
              <mxPoint x="670" y="520" />
              <mxPoint x="670" y="550" />
            </Array>
          </mxGeometry>
        </mxCell>
        <mxCell id="hVgv6dRFYr8T3Di9n9Na-27" value="" style="edgeStyle=orthogonalEdgeStyle;rounded=0;orthogonalLoop=1;jettySize=auto;html=1;" edge="1" parent="mvioNwK95yMqdUQ73LqQ-36" source="hVgv6dRFYr8T3Di9n9Na-24" target="hVgv6dRFYr8T3Di9n9Na-26">
          <mxGeometry relative="1" as="geometry" />
        </mxCell>
        <mxCell id="hVgv6dRFYr8T3Di9n9Na-24" value="นำหม้อมาวางบนแก๊ส" style="whiteSpace=wrap;html=1;" vertex="1" parent="mvioNwK95yMqdUQ73LqQ-36">
          <mxGeometry x="355" y="690" width="120" height="60" as="geometry" />
        </mxCell>
        <mxCell id="hVgv6dRFYr8T3Di9n9Na-29" value="" style="edgeStyle=orthogonalEdgeStyle;rounded=0;orthogonalLoop=1;jettySize=auto;html=1;" edge="1" parent="mvioNwK95yMqdUQ73LqQ-36" source="hVgv6dRFYr8T3Di9n9Na-26" target="hVgv6dRFYr8T3Di9n9Na-28">
          <mxGeometry relative="1" as="geometry" />
        </mxCell>
        <mxCell id="hVgv6dRFYr8T3Di9n9Na-26" value="เทน้ำใส่ในหม้อ" style="whiteSpace=wrap;html=1;" vertex="1" parent="mvioNwK95yMqdUQ73LqQ-36">
          <mxGeometry x="355" y="780" width="120" height="60" as="geometry" />
        </mxCell>
        <mxCell id="hVgv6dRFYr8T3Di9n9Na-31" value="" style="edgeStyle=orthogonalEdgeStyle;rounded=0;orthogonalLoop=1;jettySize=auto;html=1;" edge="1" parent="mvioNwK95yMqdUQ73LqQ-36" source="hVgv6dRFYr8T3Di9n9Na-28">
          <mxGeometry relative="1" as="geometry">
            <mxPoint x="415" y="1000" as="targetPoint" />
          </mxGeometry>
        </mxCell>
        <mxCell id="hVgv6dRFYr8T3Di9n9Na-32" value="Y" style="edgeLabel;html=1;align=center;verticalAlign=middle;resizable=0;points=[];" vertex="1" connectable="0" parent="hVgv6dRFYr8T3Di9n9Na-31">
          <mxGeometry x="0.2533" relative="1" as="geometry">
            <mxPoint as="offset" />
          </mxGeometry>
        </mxCell>
        <mxCell id="hVgv6dRFYr8T3Di9n9Na-36" value="" style="edgeStyle=orthogonalEdgeStyle;rounded=0;orthogonalLoop=1;jettySize=auto;html=1;" edge="1" parent="mvioNwK95yMqdUQ73LqQ-36" source="hVgv6dRFYr8T3Di9n9Na-28" target="hVgv6dRFYr8T3Di9n9Na-35">
          <mxGeometry relative="1" as="geometry" />
        </mxCell>
        <mxCell id="hVgv6dRFYr8T3Di9n9Na-28" value="ดูว่าน้ำเดือดรึยัง" style="rhombus;whiteSpace=wrap;html=1;" vertex="1" parent="mvioNwK95yMqdUQ73LqQ-36">
          <mxGeometry x="340" y="870" width="150" height="80" as="geometry" />
        </mxCell>
        <mxCell id="hVgv6dRFYr8T3Di9n9Na-34" value="" style="edgeStyle=orthogonalEdgeStyle;rounded=0;orthogonalLoop=1;jettySize=auto;html=1;exitX=0.5;exitY=1;exitDx=0;exitDy=0;" edge="1" parent="mvioNwK95yMqdUQ73LqQ-36" source="hVgv6dRFYr8T3Di9n9Na-37" target="hVgv6dRFYr8T3Di9n9Na-33">
          <mxGeometry relative="1" as="geometry">
            <mxPoint x="415" y="1040" as="sourcePoint" />
          </mxGeometry>
        </mxCell>
        <mxCell id="hVgv6dRFYr8T3Di9n9Na-42" value="" style="edgeStyle=orthogonalEdgeStyle;rounded=0;orthogonalLoop=1;jettySize=auto;html=1;" edge="1" parent="mvioNwK95yMqdUQ73LqQ-36" source="hVgv6dRFYr8T3Di9n9Na-33">
          <mxGeometry relative="1" as="geometry">
            <mxPoint x="415" y="1150" as="targetPoint" />
          </mxGeometry>
        </mxCell>
        <mxCell id="hVgv6dRFYr8T3Di9n9Na-33" value="นำบะหมี่ใส่ลงไปในหม้อ" style="whiteSpace=wrap;html=1;sketch=0;pointerEvents=1;resizable=0;" vertex="1" parent="mvioNwK95yMqdUQ73LqQ-36">
          <mxGeometry x="355" y="1050" width="120" height="60" as="geometry" />
        </mxCell>
        <mxCell id="hVgv6dRFYr8T3Di9n9Na-35" value="รอจนกว่าน้ำจะเดือด" style="whiteSpace=wrap;html=1;" vertex="1" parent="mvioNwK95yMqdUQ73LqQ-36">
          <mxGeometry x="530" y="880" width="120" height="60" as="geometry" />
        </mxCell>
        <mxCell id="hVgv6dRFYr8T3Di9n9Na-37" value="" style="ellipse;whiteSpace=wrap;html=1;aspect=fixed;" vertex="1" parent="mvioNwK95yMqdUQ73LqQ-36">
          <mxGeometry x="405" y="1000" width="20" height="20" as="geometry" />
        </mxCell>
        <mxCell id="hVgv6dRFYr8T3Di9n9Na-38" value="" style="endArrow=classic;html=1;rounded=0;entryX=1;entryY=0.5;entryDx=0;entryDy=0;exitX=1;exitY=0.5;exitDx=0;exitDy=0;" edge="1" parent="mvioNwK95yMqdUQ73LqQ-36" source="hVgv6dRFYr8T3Di9n9Na-6" target="hVgv6dRFYr8T3Di9n9Na-37">
          <mxGeometry width="50" height="50" relative="1" as="geometry">
            <mxPoint x="700" y="980" as="sourcePoint" />
            <mxPoint x="660" y="1060" as="targetPoint" />
            <Array as="points">
              <mxPoint x="780" y="360" />
              <mxPoint x="780" y="520" />
              <mxPoint x="780" y="750" />
              <mxPoint x="780" y="1010" />
            </Array>
          </mxGeometry>
        </mxCell>
        <mxCell id="hVgv6dRFYr8T3Di9n9Na-39" value="" style="ellipse;whiteSpace=wrap;html=1;aspect=fixed;" vertex="1" parent="mvioNwK95yMqdUQ73LqQ-36">
          <mxGeometry x="690" y="1000" width="20" height="20" as="geometry" />
        </mxCell>
        <mxCell id="hVgv6dRFYr8T3Di9n9Na-40" value="" style="endArrow=classic;html=1;rounded=0;exitX=1;exitY=0.5;exitDx=0;exitDy=0;entryX=0.5;entryY=0;entryDx=0;entryDy=0;" edge="1" parent="mvioNwK95yMqdUQ73LqQ-36" source="hVgv6dRFYr8T3Di9n9Na-35" target="hVgv6dRFYr8T3Di9n9Na-39">
          <mxGeometry width="50" height="50" relative="1" as="geometry">
            <mxPoint x="670" y="970" as="sourcePoint" />
            <mxPoint x="720" y="920" as="targetPoint" />
            <Array as="points">
              <mxPoint x="700" y="910" />
              <mxPoint x="700" y="950" />
            </Array>
          </mxGeometry>
        </mxCell>
        <mxCell id="hVgv6dRFYr8T3Di9n9Na-46" value="" style="edgeStyle=orthogonalEdgeStyle;rounded=0;orthogonalLoop=1;jettySize=auto;html=1;" edge="1" parent="mvioNwK95yMqdUQ73LqQ-36" source="hVgv6dRFYr8T3Di9n9Na-44">
          <mxGeometry relative="1" as="geometry">
            <mxPoint x="415" y="1270" as="targetPoint" />
          </mxGeometry>
        </mxCell>
        <mxCell id="hVgv6dRFYr8T3Di9n9Na-48" value="Y" style="edgeLabel;html=1;align=center;verticalAlign=middle;resizable=0;points=[];" vertex="1" connectable="0" parent="hVgv6dRFYr8T3Di9n9Na-46">
          <mxGeometry x="-0.2297" y="-1" relative="1" as="geometry">
            <mxPoint as="offset" />
          </mxGeometry>
        </mxCell>
        <mxCell id="hVgv6dRFYr8T3Di9n9Na-52" value="" style="edgeStyle=orthogonalEdgeStyle;rounded=0;orthogonalLoop=1;jettySize=auto;html=1;" edge="1" parent="mvioNwK95yMqdUQ73LqQ-36" source="hVgv6dRFYr8T3Di9n9Na-44" target="hVgv6dRFYr8T3Di9n9Na-51">
          <mxGeometry relative="1" as="geometry" />
        </mxCell>
        <mxCell id="hVgv6dRFYr8T3Di9n9Na-53" value="N" style="edgeLabel;html=1;align=center;verticalAlign=middle;resizable=0;points=[];" vertex="1" connectable="0" parent="hVgv6dRFYr8T3Di9n9Na-52">
          <mxGeometry x="-0.12" relative="1" as="geometry">
            <mxPoint as="offset" />
          </mxGeometry>
        </mxCell>
        <mxCell id="hVgv6dRFYr8T3Di9n9Na-44" value="ดูว่ามีซองปรุงรส&lt;div&gt;หรือไม่&lt;/div&gt;" style="rhombus;whiteSpace=wrap;html=1;" vertex="1" parent="mvioNwK95yMqdUQ73LqQ-36">
          <mxGeometry x="340" y="1150" width="150" height="80" as="geometry" />
        </mxCell>
        <mxCell id="hVgv6dRFYr8T3Di9n9Na-50" value="" style="edgeStyle=orthogonalEdgeStyle;rounded=0;orthogonalLoop=1;jettySize=auto;html=1;" edge="1" parent="mvioNwK95yMqdUQ73LqQ-36" source="hVgv6dRFYr8T3Di9n9Na-47" target="hVgv6dRFYr8T3Di9n9Na-49">
          <mxGeometry relative="1" as="geometry" />
        </mxCell>
        <mxCell id="hVgv6dRFYr8T3Di9n9Na-47" value="" style="ellipse;whiteSpace=wrap;html=1;aspect=fixed;" vertex="1" parent="mvioNwK95yMqdUQ73LqQ-36">
          <mxGeometry x="405" y="1270" width="20" height="20" as="geometry" />
        </mxCell>
        <mxCell id="hVgv6dRFYr8T3Di9n9Na-56" value="" style="edgeStyle=orthogonalEdgeStyle;rounded=0;orthogonalLoop=1;jettySize=auto;html=1;" edge="1" parent="mvioNwK95yMqdUQ73LqQ-36" source="hVgv6dRFYr8T3Di9n9Na-49" target="hVgv6dRFYr8T3Di9n9Na-55">
          <mxGeometry relative="1" as="geometry" />
        </mxCell>
        <mxCell id="hVgv6dRFYr8T3Di9n9Na-49" value="ปรุงรสแล้วข้นให้เข้ากัน" style="whiteSpace=wrap;html=1;" vertex="1" parent="mvioNwK95yMqdUQ73LqQ-36">
          <mxGeometry x="355" y="1310" width="120" height="60" as="geometry" />
        </mxCell>
        <mxCell id="hVgv6dRFYr8T3Di9n9Na-51" value="ใช้เครื่องปรุงที่อยู่ในครัวแทน" style="whiteSpace=wrap;html=1;" vertex="1" parent="mvioNwK95yMqdUQ73LqQ-36">
          <mxGeometry x="570" y="1160" width="120" height="60" as="geometry" />
        </mxCell>
        <mxCell id="hVgv6dRFYr8T3Di9n9Na-54" value="" style="endArrow=classic;html=1;rounded=0;exitX=1;exitY=0.5;exitDx=0;exitDy=0;entryX=1;entryY=0.5;entryDx=0;entryDy=0;" edge="1" parent="mvioNwK95yMqdUQ73LqQ-36" source="hVgv6dRFYr8T3Di9n9Na-51" target="hVgv6dRFYr8T3Di9n9Na-47">
          <mxGeometry width="50" height="50" relative="1" as="geometry">
            <mxPoint x="555" y="1305" as="sourcePoint" />
            <mxPoint x="605" y="1255" as="targetPoint" />
            <Array as="points">
              <mxPoint x="740" y="1190" />
              <mxPoint x="740" y="1280" />
            </Array>
          </mxGeometry>
        </mxCell>
        <mxCell id="hVgv6dRFYr8T3Di9n9Na-58" value="" style="edgeStyle=orthogonalEdgeStyle;rounded=0;orthogonalLoop=1;jettySize=auto;html=1;" edge="1" parent="mvioNwK95yMqdUQ73LqQ-36" source="hVgv6dRFYr8T3Di9n9Na-55" target="hVgv6dRFYr8T3Di9n9Na-57">
          <mxGeometry relative="1" as="geometry" />
        </mxCell>
        <mxCell id="hVgv6dRFYr8T3Di9n9Na-55" value="ต้มทิ้งไว้ 3 นาที" style="whiteSpace=wrap;html=1;" vertex="1" parent="mvioNwK95yMqdUQ73LqQ-36">
          <mxGeometry x="355" y="1400" width="120" height="60" as="geometry" />
        </mxCell>
        <mxCell id="hVgv6dRFYr8T3Di9n9Na-62" value="" style="edgeStyle=orthogonalEdgeStyle;rounded=0;orthogonalLoop=1;jettySize=auto;html=1;" edge="1" parent="mvioNwK95yMqdUQ73LqQ-36" source="hVgv6dRFYr8T3Di9n9Na-57" target="hVgv6dRFYr8T3Di9n9Na-61">
          <mxGeometry relative="1" as="geometry" />
        </mxCell>
        <mxCell id="hVgv6dRFYr8T3Di9n9Na-57" value="ปิดเตาแก๊ส" style="whiteSpace=wrap;html=1;" vertex="1" parent="mvioNwK95yMqdUQ73LqQ-36">
          <mxGeometry x="355" y="1490" width="120" height="60" as="geometry" />
        </mxCell>
        <mxCell id="hVgv6dRFYr8T3Di9n9Na-63" value="" style="edgeStyle=orthogonalEdgeStyle;rounded=0;orthogonalLoop=1;jettySize=auto;html=1;" edge="1" parent="mvioNwK95yMqdUQ73LqQ-36" source="hVgv6dRFYr8T3Di9n9Na-61" target="mvioNwK95yMqdUQ73LqQ-69">
          <mxGeometry relative="1" as="geometry" />
        </mxCell>
        <mxCell id="hVgv6dRFYr8T3Di9n9Na-61" value="ตักใส่จานให้พี่ชาย" style="whiteSpace=wrap;html=1;" vertex="1" parent="mvioNwK95yMqdUQ73LqQ-36">
          <mxGeometry x="355" y="1585" width="120" height="60" as="geometry" />
        </mxCell>
        <mxCell id="mvioNwK95yMqdUQ73LqQ-69" value="&lt;font face=&quot;Sarabun&quot;&gt;สิ้นสุด&lt;/font&gt;" style="ellipse;whiteSpace=wrap;html=1;" parent="mvioNwK95yMqdUQ73LqQ-36" vertex="1">
          <mxGeometry x="350" y="1710" width="130" height="30" as="geometry" />
        </mxCell>
        <mxCell id="mvioNwK95yMqdUQ73LqQ-70" value="&lt;font data-font-src=&quot;https://fonts.googleapis.com/css?family=Sarabun&quot; face=&quot;Sarabun&quot;&gt;โจทย์ปัญหา&lt;/font&gt;" style="swimlane;whiteSpace=wrap;html=1;" parent="WIyWlLk6GJQsqaUBKTNV-1" vertex="1">
          <mxGeometry x="-732.5" y="320" width="665" height="310" as="geometry" />
        </mxCell>
        <mxCell id="mvioNwK95yMqdUQ73LqQ-71" value="&lt;p style=&quot;line-height: 120%;&quot;&gt;&lt;font data-font-src=&quot;https://fonts.googleapis.com/css?family=Sarabun&quot; face=&quot;Sarabun&quot; style=&quot;font-size: 14px;&quot;&gt;&lt;b&gt;&lt;u&gt;โจทย์&lt;/u&gt;&lt;/b&gt; จงเขียน Flowchart เพื่อแสดงขั้นตอนการต้มบะหมี่กึ่งสำเร็จรูป (โดยผู้อ่าน Flowchart คือน้องของคุณ&lt;br&gt;&amp;nbsp; &amp;nbsp; &amp;nbsp; &amp;nbsp; &amp;nbsp; ที่มีอายุ 5 ขวบและกำลังหยิบ Flowchart มาต้มมาม่าให้คุณรับประทาน โดยคุณจะไม่พูดอะไรกับน้องเลย)&lt;br&gt;&lt;/font&gt;&lt;br&gt;&lt;/p&gt;&lt;p style=&quot;line-height: 120%;&quot;&gt;&lt;font face=&quot;Sarabun&quot;&gt;&lt;b&gt;&lt;u&gt;หมายเหตุ&lt;/u&gt;&lt;/b&gt; ทุกขั้นตอนควรมีการอธิบายอย่างละเอียด และเตรียมแก้ไขสำหรับเหตุการณ์ที่อาจผิดพลาดในทุกขั้นตอน&lt;br&gt;&amp;nbsp; &amp;nbsp; &amp;nbsp; &amp;nbsp; &amp;nbsp; เช่น&lt;br&gt;&amp;nbsp; &amp;nbsp; &amp;nbsp; &amp;nbsp; &amp;nbsp; - กรณีให้น้องไปซื้อของที่ตลาด แต่ของหมด ควรดำเนินการอย่างไร?&lt;br&gt;&amp;nbsp; &amp;nbsp; &amp;nbsp; &amp;nbsp; &amp;nbsp; - กรณีให้น้องต้มน้ำ แต่น้ำยังไม่เดือด ควรใส่บะหมี่สำเร็จรูปลงไปเลยไหม&lt;br&gt;&amp;nbsp; &amp;nbsp; &amp;nbsp; &amp;nbsp; &amp;nbsp; - กรณีระหว่างทำกับข้าวแล้วแก้สหมด ควรดำเนินการอย่างไร?&lt;br&gt;&amp;nbsp; &amp;nbsp; &amp;nbsp; &amp;nbsp; &amp;nbsp; - กรณีน้องไปซื้อของ แต่จำนวนเงินไม่พอ ควรทำอย่างไร?&lt;br&gt;&amp;nbsp; &amp;nbsp; &amp;nbsp; &amp;nbsp; &amp;nbsp; - กรณีน้องต้มบะหมี่เสร็จ แต่พึ่งมาทราบภายหลังว่าในซองบะหมี่ไม่มีเครื่องปรุงมาด้วย ต้องทำอย่างไร?&lt;/font&gt;&lt;/p&gt;" style="text;html=1;align=left;verticalAlign=top;resizable=0;points=[];autosize=1;strokeColor=none;fillColor=none;fontSize=14;" parent="mvioNwK95yMqdUQ73LqQ-70" vertex="1">
          <mxGeometry x="15" y="20" width="650" height="240" as="geometry" />
        </mxCell>
      </root>
    </mxGraphModel>
  </diagram>
</mxfile>
